# xmcd
# 
# Track frame offsets:
#     150
#     15787
#     31957
#     47670
#     67382
#     86550
#     107032
#     128335
#     149865
#     164280
#     183000
#     193420
#     215255
#     233875
#     248422
#     264175
#     283232
#     302087
#     321770
# 
# Disc length: 4481
# 
# Revision: 3
# Processed by: cddbd v1.5.2PL0 Copyright (c) Steve Scherf et al.
# Submitted via: fre:ac v1.1beta1pre4
# 
DISCID=09117f13
DTITLE=Punkd - Punkd
DYEAR=0
DGENRE=
TTITLE0=Burn Baby Burn
TTITLE1=Envy
TTITLE2=Girl From Mars
TTITLE3=Shining Light
TTITLE4=Ash - A Life Less Ordinary
TTITLE5=Goldfinger
TTITLE6=Jesus Says
TTITLE7=Oh Yeah
TTITLE8=Jack Names the Planets
TTITLE9=Sometimes
TTITLE10=Ash - Kung Fu
TTITLE11=Candy
TTITLE12=Angel Interceptor
TTITLE13=Uncle Pat
TTITLE14=Wildsurf
TTITLE15=Walking Barefoot
TTITLE16=Petrol
TTITLE17=There's a Star
TTITLE18=Numbskull
EXTD=\t
EXTT0=
EXTT1=
EXTT2=
EXTT3=
EXTT4=
EXTT5=
EXTT6=
EXTT7=
EXTT8=
EXTT9=
EXTT10=
EXTT11=
EXTT12=
EXTT13=
EXTT14=
EXTT15=
EXTT16=
EXTT17=
EXTT18=
PLAYORDER=
